<svg width="23" height="23" viewBox="0 0 23 23" fill="none" xmlns="http://www.w3.org/2000/svg">
<path d="M12.495 0.192463C12.9179 0.440155 13.2688 0.833288 13.6133 1.17781C13.6707 1.23499 13.6707 1.23499 13.7293 1.29332C13.8342 1.3978 13.939 1.50239 14.0438 1.60702C14.1573 1.72035 14.271 1.83355 14.3846 1.94677C14.6581 2.21933 14.9314 2.49211 15.2046 2.76491C15.3077 2.86782 15.4108 2.97071 15.5139 3.07361C15.969 3.52778 16.424 3.98201 16.8788 4.43642C16.9898 4.54727 17.1008 4.65813 17.2117 4.76898C17.2531 4.8103 17.2531 4.8103 17.2953 4.85246C17.7425 5.29928 18.1902 5.74572 18.638 6.192C19.0986 6.65107 19.5589 7.11048 20.0189 7.57022C20.2768 7.82799 20.5349 8.08562 20.7933 8.34287C21.0132 8.56177 21.2328 8.78096 21.452 9.00056C21.5637 9.11246 21.6756 9.22422 21.7878 9.33558C21.9098 9.45656 22.031 9.57824 22.1522 9.69999C22.1874 9.7347 22.2226 9.76941 22.2589 9.80517C22.4852 10.0341 22.6511 10.2712 22.8048 10.5537C22.832 10.6022 22.8591 10.6507 22.8871 10.7007C23.0519 11.2275 23.046 11.9893 22.8048 12.4903C22.7176 12.6296 22.7176 12.6296 22.6254 12.7509C22.5968 12.7896 22.5683 12.8283 22.5389 12.8681C22.1792 13.3093 21.699 13.5549 21.137 13.6366C21.0079 13.645 20.8826 13.649 20.7535 13.6485C20.7175 13.6484 20.6816 13.6483 20.6446 13.6482C20.6175 13.648 20.5903 13.6479 20.5623 13.6478C20.5625 13.7007 20.5625 13.7007 20.5626 13.7547C20.5646 14.6152 20.566 15.4757 20.567 16.3363C20.5674 16.7524 20.5681 17.1686 20.5691 17.5847C20.57 17.9476 20.5706 18.3106 20.5708 18.6735C20.5709 18.8655 20.5712 19.0574 20.5718 19.2494C20.5724 19.4305 20.5726 19.6117 20.5725 19.7928C20.5725 19.8588 20.5727 19.9249 20.573 19.991C20.5774 20.8754 20.433 21.6345 19.8223 22.305C19.1502 22.9475 18.3879 22.9957 17.5073 22.9927C17.411 22.9928 17.3147 22.993 17.2184 22.9931C17.0175 22.9933 16.8166 22.993 16.6157 22.9924C16.3582 22.9916 16.1008 22.9921 15.8434 22.9929C15.6449 22.9934 15.4465 22.9932 15.248 22.9929C15.1531 22.9928 15.0581 22.9929 14.9632 22.9932C14.8307 22.9935 14.6983 22.993 14.5658 22.9923C14.5267 22.9925 14.4876 22.9928 14.4474 22.9931C14.2357 22.9909 14.0967 22.977 13.9246 22.8403C13.7591 22.6519 13.6949 22.5492 13.6942 22.3005C13.6939 22.2526 13.6937 22.2048 13.6934 22.1555C13.6934 22.1028 13.6933 22.0501 13.6933 21.9958C13.6931 21.9404 13.6928 21.8851 13.6926 21.8281C13.6921 21.7075 13.6917 21.5869 13.6914 21.4663C13.691 21.2754 13.69 21.0845 13.689 20.8935C13.6863 20.3505 13.6839 19.8075 13.6824 19.2645C13.6815 18.9647 13.6802 18.665 13.6784 18.3652C13.6775 18.2067 13.6768 18.0481 13.6767 17.8896C13.6766 17.7124 13.6754 17.5352 13.6742 17.358C13.6743 17.3059 13.6745 17.2538 13.6746 17.2002C13.6703 16.7774 13.6013 16.3835 13.2967 16.0692C13.0582 15.8929 12.8411 15.8398 12.5499 15.8378C12.499 15.8374 12.4481 15.8369 12.3957 15.8365C12.3408 15.8363 12.286 15.8361 12.2294 15.8359C12.1728 15.8357 12.1162 15.8354 12.0578 15.8351C11.9379 15.8347 11.8181 15.8344 11.6982 15.8343C11.5454 15.834 11.3926 15.8329 11.2398 15.8317C11.0931 15.8306 10.9465 15.8305 10.7999 15.8303C10.7454 15.8298 10.6909 15.8292 10.6348 15.8286C10.2817 15.8296 10.0288 15.8674 9.72279 16.0524C9.46624 16.3159 9.34457 16.6174 9.34409 16.9812C9.34391 17.0298 9.34373 17.0783 9.34354 17.1283C9.34357 17.1813 9.34359 17.2343 9.34361 17.289C9.34346 17.345 9.3433 17.401 9.34314 17.4587C9.34281 17.5804 9.34256 17.7022 9.34241 17.8239C9.34215 18.0165 9.3414 18.2091 9.34056 18.4017C9.34027 18.4677 9.33999 18.5336 9.33971 18.5996C9.33956 18.6327 9.33942 18.6657 9.33928 18.6998C9.33739 19.148 9.33591 19.5963 9.33536 20.0446C9.33498 20.3471 9.33397 20.6496 9.33225 20.9522C9.33136 21.1122 9.3308 21.2722 9.33103 21.4322C9.33128 21.6107 9.33014 21.7892 9.3289 21.9677C9.32919 22.0206 9.32949 22.0734 9.3298 22.1279C9.32667 22.4005 9.3223 22.5881 9.12573 22.7955C8.90116 22.9935 8.71651 23.0007 8.43115 22.9981C8.38911 22.9984 8.34707 22.9987 8.30375 22.999C8.16509 22.9998 8.02647 22.9993 7.88782 22.9987C7.79095 22.9988 7.69408 22.999 7.59721 22.9992C7.39415 22.9995 7.1911 22.9991 6.98805 22.9982C6.72897 22.9972 6.46993 22.9978 6.21086 22.9989C6.01069 22.9995 5.81054 22.9993 5.61038 22.9989C5.51493 22.9987 5.41949 22.9989 5.32405 22.9993C4.36838 23.0026 4.36838 23.0026 3.9232 22.7955C3.87169 22.7717 3.82017 22.748 3.7671 22.7235C3.09551 22.3311 2.7105 21.7893 2.48802 21.0467C2.42882 20.6999 2.43718 20.3516 2.43808 20.0009C2.43809 19.9315 2.43808 19.8621 2.43806 19.7927C2.43804 19.6051 2.43831 19.4175 2.43862 19.2299C2.4389 19.0336 2.43893 18.8372 2.43898 18.6409C2.43912 18.2694 2.43949 17.898 2.43994 17.5265C2.44044 17.1035 2.44069 16.6805 2.44091 16.2574C2.44138 15.3875 2.44217 14.5177 2.44317 13.6478C2.41271 13.648 2.38225 13.6483 2.35087 13.6485C2.31074 13.6487 2.27061 13.6489 2.22926 13.6491C2.18955 13.6494 2.14984 13.6496 2.10893 13.6499C1.506 13.6388 1.00087 13.401 0.571056 12.9921C0.128488 12.5259 -0.00729817 12.0076 0.000298926 11.3773C0.0279595 10.6119 0.435736 10.118 0.962288 9.59549C1.00129 9.55626 1.04029 9.51702 1.08047 9.4766C1.18747 9.36909 1.29476 9.26188 1.4022 9.1548C1.51849 9.03874 1.6344 8.92229 1.75036 8.80589C1.97705 8.57847 2.20411 8.35141 2.4313 8.12449C2.61603 7.93998 2.80063 7.75534 2.98515 7.57062C3.02465 7.53107 3.02465 7.53107 3.06495 7.49073C3.11846 7.43716 3.17197 7.38359 3.22548 7.33002C3.72631 6.82866 4.22757 6.32772 4.72897 5.82692C5.18716 5.36926 5.64483 4.91109 6.10226 4.45267C6.57275 3.98116 7.04357 3.50999 7.51476 3.03918C7.77897 2.77517 8.04306 2.51103 8.3068 2.24655C8.53122 2.0215 8.75596 1.79678 8.9811 1.57245C9.09583 1.45812 9.21042 1.34365 9.32462 1.22879C9.44867 1.10402 9.57342 0.979958 9.69823 0.855955C9.73385 0.819912 9.76947 0.783869 9.80617 0.746733C10.0374 0.518499 10.2756 0.350092 10.5609 0.195266C10.6094 0.168098 10.6579 0.14093 10.7079 0.112939C11.2328 -0.0511564 11.9949 -0.0461879 12.495 0.192463ZM10.5701 1.96262C10.5315 2.00103 10.4929 2.03945 10.4531 2.07903C10.3464 2.18523 10.2401 2.29172 10.1338 2.39836C10.019 2.51347 9.90378 2.6282 9.78862 2.74298C9.56328 2.96768 9.3383 3.19274 9.11346 3.41794C8.93071 3.60096 8.74783 3.78384 8.56486 3.96664C8.5388 3.99267 8.51275 4.0187 8.4859 4.04553C8.43296 4.09841 8.38002 4.1513 8.32708 4.20419C7.83093 4.69987 7.33519 5.19597 6.83959 5.6922C6.4144 6.11793 5.98885 6.54329 5.56305 6.9684C5.06841 7.46223 4.57399 7.95628 4.07992 8.45068C4.02724 8.5034 3.97455 8.55612 3.92187 8.60884C3.89594 8.63478 3.87002 8.66072 3.84331 8.68744C3.66069 8.87016 3.4779 9.05271 3.29505 9.23521C3.07225 9.4576 2.84968 9.68023 2.62742 9.90317C2.51403 10.0169 2.40053 10.1305 2.28674 10.2438C2.1634 10.3667 2.04058 10.4901 1.91781 10.6135C1.88176 10.6492 1.84572 10.6849 1.80859 10.7218C1.58327 10.9495 1.39256 11.1554 1.39201 11.4926C1.4 11.7236 1.45107 11.8494 1.59103 12.0335C1.84457 12.2342 2.02506 12.2626 2.34191 12.2656C2.40082 12.2666 2.45973 12.2677 2.52043 12.2688C2.61353 12.2704 2.7066 12.2717 2.79971 12.2723C2.89005 12.273 2.98038 12.2749 3.07071 12.2768C3.12453 12.2774 3.17834 12.2781 3.23379 12.2788C3.45423 12.3134 3.59386 12.4018 3.72802 12.5802C3.8043 12.7386 3.80553 12.854 3.80563 13.0297C3.80583 13.0618 3.80603 13.0939 3.80624 13.127C3.80676 13.2343 3.80633 13.3416 3.80591 13.4489C3.80609 13.526 3.80634 13.603 3.80664 13.6801C3.80716 13.846 3.80727 14.0118 3.80707 14.1777C3.80676 14.4402 3.80748 14.7028 3.80834 14.9653C3.81004 15.5229 3.81061 16.0805 3.81107 16.6382C3.81157 17.2394 3.81226 17.8407 3.81425 18.4419C3.81507 18.7026 3.81524 18.9633 3.81492 19.224C3.81485 19.3866 3.81534 19.5493 3.81597 19.7119C3.81615 19.787 3.8161 19.8621 3.8158 19.9372C3.81389 20.4571 3.81519 20.9346 4.19422 21.3296C4.50918 21.6017 4.85543 21.6355 5.2621 21.6347C5.30548 21.6347 5.30548 21.6347 5.34973 21.6347C5.44412 21.6347 5.53851 21.6343 5.63291 21.634C5.69882 21.6339 5.76474 21.6338 5.83066 21.6338C6.00326 21.6336 6.17586 21.6332 6.34846 21.6327C6.52495 21.6322 6.70143 21.632 6.87792 21.6318C7.22354 21.6313 7.56917 21.6306 7.9148 21.6296C7.91496 21.5916 7.91496 21.5916 7.91512 21.5528C7.91778 20.9336 7.92118 20.3145 7.92537 19.6953C7.92738 19.3959 7.92913 19.0965 7.93033 18.7971C7.9315 18.5078 7.93332 18.2185 7.93557 17.9292C7.93631 17.8191 7.93683 17.7091 7.93711 17.5991C7.93982 16.636 7.99288 15.8278 8.69668 15.0955C9.28206 14.5744 9.93616 14.4261 10.7028 14.4327C10.766 14.4327 10.8292 14.4326 10.8923 14.4325C11.0236 14.4324 11.1548 14.433 11.286 14.434C11.4527 14.4353 11.6193 14.4352 11.786 14.4346C11.916 14.4343 12.0461 14.4346 12.1762 14.4352C12.267 14.4355 12.3578 14.4353 12.4486 14.4351C13.1814 14.4425 13.8238 14.6362 14.3617 15.1507C14.8943 15.7376 15.0585 16.4333 15.0602 17.2058C15.0606 17.254 15.0611 17.3022 15.0615 17.3518C15.0629 17.5093 15.0637 17.6667 15.0644 17.8242C15.0653 17.9341 15.0661 18.044 15.0671 18.1538C15.0693 18.4417 15.0711 18.7296 15.0728 19.0175C15.0746 19.3117 15.0769 19.606 15.0791 19.9003C15.0835 20.4767 15.0873 21.0532 15.0907 21.6296C15.4697 21.6317 15.8486 21.6333 16.2276 21.6343C16.4036 21.6347 16.5796 21.6354 16.7556 21.6364C16.9258 21.6374 17.0959 21.6379 17.266 21.6381C17.3306 21.6383 17.3953 21.6386 17.4599 21.6391C18.0402 21.6433 18.5041 21.611 18.9393 21.1952C19.2156 20.777 19.1909 20.3093 19.1885 19.8271C19.1887 19.7498 19.1888 19.6724 19.1891 19.595C19.1894 19.4291 19.1894 19.2633 19.189 19.0975C19.1885 18.8352 19.1891 18.5729 19.1898 18.3105C19.1914 17.6593 19.1917 17.0081 19.1916 16.3569C19.1915 15.8501 19.1918 15.3433 19.1934 14.8364C19.1941 14.5757 19.194 14.315 19.1933 14.0543C19.1931 13.8922 19.1936 13.7302 19.1942 13.5681C19.1944 13.493 19.1943 13.4179 19.1938 13.3428C19.1932 13.2402 19.1937 13.1377 19.1945 13.0351C19.1945 12.949 19.1945 12.949 19.1944 12.8612C19.2269 12.6364 19.324 12.4945 19.5005 12.3541C19.649 12.2903 19.7641 12.2853 19.9257 12.2843C19.9842 12.2833 20.0428 12.2823 20.1031 12.2813C20.1646 12.2809 20.2261 12.2804 20.2876 12.2801C20.8921 12.2921 20.8921 12.2921 21.4061 12.0139C21.5489 11.8466 21.6072 11.7247 21.6107 11.5038C21.612 11.4674 21.6132 11.4311 21.6145 11.3936C21.555 11.0411 21.2797 10.8035 21.0371 10.5629C20.9987 10.5243 20.9603 10.4857 20.9207 10.4459C20.8145 10.3392 20.708 10.2329 20.6013 10.1267C20.4862 10.0119 20.3714 9.89669 20.2567 9.78154C20.0319 9.55624 19.8068 9.33131 19.5816 9.1065C19.3985 8.92379 19.2156 8.74094 19.0328 8.558C19.0067 8.53195 18.9807 8.50589 18.9539 8.47905C18.901 8.42612 18.8481 8.37319 18.7952 8.32026C18.2994 7.82419 17.8032 7.32854 17.3069 6.83302C16.8811 6.4079 16.4557 5.98243 16.0305 5.5567C15.5366 5.06215 15.0424 4.56781 14.548 4.07383C14.4952 4.02115 14.4425 3.96847 14.3898 3.9158C14.3638 3.88988 14.3379 3.86396 14.3112 3.83726C14.1284 3.65466 13.9458 3.47191 13.7633 3.28909C13.5409 3.06632 13.3182 2.8438 13.0952 2.62157C12.9815 2.5082 12.8679 2.39473 12.7545 2.28096C12.6316 2.15763 12.5082 2.03483 12.3848 1.91208C12.3491 1.87605 12.3133 1.84001 12.2765 1.80289C12.0488 1.5776 11.8428 1.38692 11.5056 1.38637C11.4522 1.38507 11.4522 1.38507 11.3978 1.38375C11.0469 1.44917 10.8109 1.71989 10.5701 1.96262Z" fill="black"/>
</svg>
